<?xml version="1.0" encoding="utf-8"?>
<!-- Generator: Adobe Illustrator 15.0.0, SVG Export Plug-In . SVG Version: 6.00 Build 0)  -->
<!DOCTYPE svg PUBLIC "-//W3C//DTD SVG 1.1//EN" "http://www.w3.org/Graphics/SVG/1.1/DTD/svg11.dtd">
<svg version="1.1" id="Layer_1" xmlns="http://www.w3.org/2000/svg" xmlns:xlink="http://www.w3.org/1999/xlink" x="0px" y="0px"
	 width="226.695px" height="226.695px" viewBox="0 0 226.695 226.695" enable-background="new 0 0 226.695 226.695"
	 xml:space="preserve">
<circle fill-rule="evenodd" clip-rule="evenodd" fill="#72308D" cx="113.348" cy="113.348" r="113.347"/>
<g>
	<path fill-rule="evenodd" clip-rule="evenodd" fill="#FFFFFF" d="M100.428,56.996c6.872-0.905,23.78-0.255,23.78-0.255
		s16.836-1.029,22.515,0.761c12.194,3.844,11.131,14.561,11.131,31.62c0,18.157,0,28.806,0,47.053c0,8.762,0.95,17.43-0.759,22.767
		c-1.355,4.229-5.371,9.12-11.132,10.626c-4.373,1.143-11.361,0.505-16.695,0.505c-12.24,0-21.728,0-34.151,0
		c-6.199,0-11.889,0.52-15.938-1.011c-4.023-1.521-7.728-5.044-9.359-9.36c-1.547-4.09-1.014-11.39-1.014-18.72
		c0-16.133,0-22.825,0-38.956c0-6.451-0.765-14.284,0.509-18.974c1.285-4.734,6.527-10.71,11.636-15.179
		C86.091,63.377,93.343,57.929,100.428,56.996z M101.187,65.598c-0.001,6.195,0.271,11.237-1.771,14.669
		c-3.727,6.268-12.73,4.56-22.513,4.807c0,17.389,0,36.179,0,54.39c0,5.715-1.133,13.581,0.505,17.707
		c2.425,6.113,10.712,4.807,19.228,4.807c13.448,0,19.871,0,32.884,0c4.974,0,12.688,0.812,15.938-0.759
		c6.12-2.958,4.3-15.725,4.3-25.294c0-16.248,1.432-62.33-0.759-66.787c-2.215-4.505-6.997-4.301-13.913-4.301
		c-11.296,0-23.657,0-33.645,0C101.146,64.879,101.166,65.238,101.187,65.598z"/>
	<path fill-rule="evenodd" clip-rule="evenodd" fill="#FFFFFF" d="M137.617,135.669c0.571,4.824,1.63,9.163,2.275,13.912
		c-2.979-0.816-5.463-2.126-8.348-3.036c-2.859,0.936-5.349,2.242-8.348,3.036c0.656-4.654,1.639-8.984,2.276-13.657
		c-1.915-2.496-3.977-4.226-4.048-8.097c-0.252-13.975,20.448-12.712,20.238,0C141.603,131.484,139.842,133.269,137.617,135.669z"/>
	<path fill-rule="evenodd" clip-rule="evenodd" fill="#FFFFFF" d="M141.666,96.558c0,0.396-0.322,0.718-0.718,0.718H85.823
		c-0.396,0-0.718-0.322-0.718-0.718v-3.147c0-0.396,0.321-0.717,0.718-0.717h55.125c0.396,0,0.718,0.32,0.718,0.717V96.558z"/>
	<path fill-rule="evenodd" clip-rule="evenodd" fill="#FFFFFF" d="M141.666,109.29c0,0.397-0.322,0.719-0.718,0.719H85.823
		c-0.396,0-0.718-0.321-0.718-0.719v-3.146c0-0.396,0.321-0.716,0.718-0.716h55.125c0.396,0,0.718,0.32,0.718,0.716V109.29z"/>
	<path fill-rule="evenodd" clip-rule="evenodd" fill="#FFFFFF" d="M115.093,120.933c0,0.395-0.172,0.716-0.38,0.716H85.486
		c-0.211,0-0.381-0.321-0.381-0.716v-3.149c0-0.395,0.17-0.716,0.381-0.716h29.228c0.208,0,0.38,0.321,0.38,0.716V120.933z"/>
	<path fill-rule="evenodd" clip-rule="evenodd" fill="#FFFFFF" d="M115.093,134.339c0,0.397-0.172,0.719-0.38,0.719H85.486
		c-0.211,0-0.381-0.321-0.381-0.719v-3.147c0-0.397,0.17-0.717,0.381-0.717h29.228c0.208,0,0.38,0.319,0.38,0.717V134.339z"/>
	<path fill-rule="evenodd" clip-rule="evenodd" fill="#FFFFFF" d="M115.093,146.897c0,0.399-0.172,0.718-0.38,0.718H85.486
		c-0.211,0-0.381-0.318-0.381-0.718v-3.146c0-0.396,0.17-0.72,0.381-0.72h29.228c0.208,0,0.38,0.324,0.38,0.72V146.897z"/>
</g>
</svg>
