<?xml version="1.0" encoding="utf-8"?>
<!-- Generator: Adobe Illustrator 15.0.0, SVG Export Plug-In . SVG Version: 6.00 Build 0)  -->
<!DOCTYPE svg PUBLIC "-//W3C//DTD SVG 1.1//EN" "http://www.w3.org/Graphics/SVG/1.1/DTD/svg11.dtd">
<svg version="1.1" id="Layer_1" xmlns="http://www.w3.org/2000/svg" xmlns:xlink="http://www.w3.org/1999/xlink" x="0px" y="0px"
	 width="226.695px" height="226.695px" viewBox="0 0 226.695 226.695" enable-background="new 0 0 226.695 226.695"
	 xml:space="preserve">
<circle fill-rule="evenodd" clip-rule="evenodd" fill="#712E8E" cx="113.348" cy="113.348" r="113.348"/>
<g>
	<path fill-rule="evenodd" clip-rule="evenodd" fill="#FFFFFF" d="M86.82,54.569c6.926-1.242,13.734,3.469,13.974,10.936
		c0.201,6.258-4.762,12.303-12.127,12.102C76.483,77.272,74.259,61.401,82.6,56.019C83.625,55.356,84.999,54.897,86.82,54.569z"/>
	<path fill-rule="evenodd" clip-rule="evenodd" fill="#FFFFFF" d="M110.592,110.581c1.453,1.133,3.559,1.602,5.198,2.543
		c6.243-0.416,11.438-3.629,17.849-3.213c15.739,1.021,7.423,27.658,9.312,43.201c-9.226,1.594-17.942-1.113-26.362-1.891
		c-1.754,5.941,3.746,20.09-3.115,20.49c-4.377,0.258-4.348-4.807-4.785-9.365c-0.452-4.697-0.942-8.736-1.287-12.926
		c-1.676-0.512-4.296-0.059-6.354-0.18c-1.248,7.035,3.554,23.223-3.797,23.082c-6.906-0.129-2.021-16.551-3.962-22.779
		c-1.809-0.531-4.625-0.039-6.821-0.178c-1.739,4.938,2.944,22.506-4.039,22.615c-6.841,0.111-2.822-15.893-3.721-22.312
		c-4.01-0.508-9.014-0.004-13.409-0.119c1.438-5.193,2.841-10.422,4.329-16.031c0.446-1.678,1.374-3.762,1.368-5.188
		c-0.01-1.768-1.237-3.635-1.46-5.633c-0.193-1.73-0.188-3.738-0.047-5.41c0.128-1.52,1.241-3.389,1.135-4.715
		c-0.133-1.641-2.11-3.834-2.633-5.15c-8.963-22.57,23.091-36.381,38.391-21.504C111.748,91.142,115.219,101.331,110.592,110.581z
		 M105.11,102.161c-0.058-5.793-2.083-9.586-5.747-11.713C101.1,94.538,103.292,98.157,105.11,102.161z M74.531,102.192
		c1.049-3.947,4.29-6.979,4.137-11.328C76.016,93.233,73.498,96.978,74.531,102.192z M77.471,115.81
		c-2.93,12.336,10.429,19.662,19.639,13.236c3.949,1.596,8.67,2.408,12.502,4.125c0.35,2.729,1.361,4.783,1.712,7.514
		c3.696,0.113,7.212,0.412,11.059,0.373c-0.178-3.594,0.13-6.713,0.147-10.115c-1.906-0.191-4.542,1.518-7.044,1.473
		c-1.682-0.031-5.683-1.701-8.489-2.514c-4.447-1.289-10.222-1.598-10.397-5.557c-0.138-3.109,2.601-4.076,5.138-4.277
		C103.157,104.333,80.561,102.794,77.471,115.81z M109.521,122.821c4.441,2.318,8.884,1.123,12.221-1.518
		c-5.121,0.15-9.13-0.834-12.256-2.715C109.498,119.999,109.511,121.411,109.521,122.821z"/>
	<path fill-rule="evenodd" clip-rule="evenodd" fill="#FFFFFF" d="M128.731,86.433c12.511-1.061,15.114,16.779,4.409,20.424
		c-6.973,2.377-13.377-2.418-14.185-8.344C118.046,91.825,122.132,86.991,128.731,86.433z"/>
	<path fill-rule="evenodd" clip-rule="evenodd" fill="#FFFFFF" d="M89.552,125.347c-0.302-2.205-5.982-3.189-6.174-6.531
		c-0.194-3.404,4.643-5.562,6.101-1.699c1.878-3.824,7.521-2.402,6.372,2.531C95.204,122.433,90.861,122.854,89.552,125.347z"/>
	<path fill-rule="evenodd" clip-rule="evenodd" fill="#FFFFFF" d="M131.445,155.563c3.568,0.324,7.63,0.146,11.526,0.135
		c-0.199,1.902-0.261,3.941-0.183,6.117c5.893,0.666,18.395-4.129,18.607,2.662c0.167,5.383-7.877,4.143-14.309,4.594
		c-4.141,0.289-11.423,1.742-13.182-0.828c-1.039-1.52-0.936-4.186-1.225-5.869C132.295,160.138,131.782,157.735,131.445,155.563z"
		/>
</g>
</svg>
