<?xml version="1.0" encoding="utf-8"?>
<!-- Generator: Adobe Illustrator 15.0.0, SVG Export Plug-In . SVG Version: 6.00 Build 0)  -->
<!DOCTYPE svg PUBLIC "-//W3C//DTD SVG 1.1//EN" "http://www.w3.org/Graphics/SVG/1.1/DTD/svg11.dtd">
<svg version="1.1" id="Layer_1" xmlns="http://www.w3.org/2000/svg" xmlns:xlink="http://www.w3.org/1999/xlink" x="0px" y="0px"
	 width="226.695px" height="226.695px" viewBox="0 0 226.695 226.695" enable-background="new 0 0 226.695 226.695"
	 xml:space="preserve">
<circle fill="#676767" cx="113.348" cy="113.348" r="113.346"/>
<g>
	<path fill="#FFFFFF" d="M106.238,62.485c-3.262,5.089-4.997,11.697-4.842,20.199c-8.25,6.885-3.965,26.349,4.842,29.588
		c1.291,5.353,5.333,9.451,7.395,13.088c-4.358,0.854-8.832,1.603-13.941,1.707c-0.089,2.564,0.243,5.552-0.281,7.682
		c-8.131,2.115-13.899,6.587-18.207,12.52c-1.329-6.734-4.959-11.164-4.27-19.914c-10.634-0.846-20.047-2.907-27.028-7.398
		c13.777-10.33,5.775-44.829,18.773-57.47c5.37-5.219,23.317-10.172,29.305-1.706C101.313,60.769,103.826,61.575,106.238,62.485z"/>
	<path fill="#FFFFFF" d="M162.281,87.808c1.484,0.767,3.332,0.199,4.553,1.421c3.039,3.039,0.035,19.226-7.114,17.07
		c-1.25,6.28-3.938,11.414-8.245,15.364c-3.609,3.309-9.533,7.322-15.365,7.396c-5.004,0.062-10.562-3.211-13.942-5.977
		c-4.844-3.96-8.456-9.644-9.669-16.5c-7.157,0.896-12.964-19.292-3.13-18.493c-2.455-15.594,2.493-28.312,18.489-27.312
		c0.404-2.91,2.051-4.273,5.403-4.554C148.548,54.954,168.395,68.907,162.281,87.808z"/>
	<path fill="#FFFFFF" d="M186.18,157.794c0,2.182,0,4.363,0,6.543c-0.804,2.614-2.003,4.673-4.551,5.407
		c-5.172,1.486-15.225,0.284-22.477,0.284c-16.219,0-30.244,0-46.089,0c-6.272,0-17.691,1.349-22.76-0.284
		c-6.436-2.074-4.806-15.117-1.992-19.629c5.129-8.241,17.379-8.841,27.312-13.373c2.907,8.562,5.713,17.231,9.103,25.319
		c2.696-4.604,5.304-9.302,8.252-13.656c-2.429-3.112-5.894-4.769-5.405-9.104c0.873-7.75,16.353-7.377,17.067,0
		c0.479,4.881-3.385,6.107-5.404,9.104c3.104,4.296,5.384,9.41,8.533,13.656c3.193-8.377,5.744-17.396,9.392-25.319
		C168.536,142.06,184.789,142.492,186.18,157.794z"/>
	<path fill="#FFFFFF" d="M40.516,164.337c0-2.275,0-4.551,0-6.828c2.139-16.26,15.933-20.863,31.576-23.611
		c-3.381,4.179-6.968,9.412-10.24,13.655c-1.17,1.52-3.233,3.052-2.847,4.267c4.516,0.66,8.351-0.907,11.668,0
		c1.804,0.496,7.517,6.666,7.965,8.537c0.787,3.263-0.224,7.139,1.425,9.674c-5.088,0-11.37,0-17.927,0
		C52.087,170.028,41.371,172.059,40.516,164.337z"/>
</g>
</svg>
