<?xml version="1.0" encoding="utf-8"?>
<!-- Generator: Adobe Illustrator 15.0.0, SVG Export Plug-In . SVG Version: 6.00 Build 0)  -->
<!DOCTYPE svg PUBLIC "-//W3C//DTD SVG 1.1//EN" "http://www.w3.org/Graphics/SVG/1.1/DTD/svg11.dtd">
<svg version="1.1" id="Layer_1" xmlns="http://www.w3.org/2000/svg" xmlns:xlink="http://www.w3.org/1999/xlink" x="0px" y="0px"
	 width="226.695px" height="226.695px" viewBox="0 0 226.695 226.695" enable-background="new 0 0 226.695 226.695"
	 xml:space="preserve">
<circle fill-rule="evenodd" clip-rule="evenodd" fill="#676767" cx="113.348" cy="113.348" r="113.348"/>
<path fill-rule="evenodd" clip-rule="evenodd" fill="#FFFFFF" d="M89.614,56.563c15.822,0,31.646,0,47.468,0
	c10.925,11.109,21.941,22.126,33.051,33.05c0,15.823,0,31.646,0,47.469c-11.109,10.925-22.126,21.942-33.051,33.051
	c-15.823,0-31.646,0-47.468,0c-10.925-11.108-21.941-22.126-33.051-33.051c0-15.823,0-31.646,0-47.469
	C67.672,78.689,78.689,67.672,89.614,56.563z M120.002,78.966c0-2.937,0.474-7.393-0.666-9.095
	c-0.925-1.381-4.431-2.105-5.989-0.443c-1.258,1.342-0.887,6.139-0.887,8.872c0,10.287,0,21.103,0,29.946
	c-1.261-0.146-3.102,0.291-3.993-0.223c0-7.954,0-18.298,0-27.283c0-4.752,0.432-8.896-3.992-8.65
	c-5.315,0.295-3.549,10.736-3.549,16.414c0,6.976,0.184,13.767-0.223,19.742c-1.183,0-2.366,0-3.549,0
	c-1.151-6.097,2.777-19.018-3.105-19.742c-5.397-0.665-4.436,5.29-4.436,10.203c0,11.667-0.673,22.012,0,32.829
	c0.906,14.595,11.856,25.833,27.062,25.73c14.609-0.099,26.506-11.732,26.617-26.396c0.07-9.276-0.143-18.831-0.666-28.836
	c-7.783,0.3-8.896,7.781-8.65,16.857c0.061,2.272,0.908,5.752-2.439,5.545c-0.4-10.821-0.223-24.733-0.223-36.821
	c0-5.666,1.421-13.997-3.992-13.753c-5.379,0.243-3.549,11.493-3.549,17.746c0,6.354,0.178,11.979-0.223,16.637
	c-1.183,0-2.365,0-3.548,0C120.002,98.655,120.002,88.922,120.002,78.966z"/>
</svg>
