<?xml version="1.0" encoding="utf-8"?>
<!-- Generator: Adobe Illustrator 15.0.0, SVG Export Plug-In . SVG Version: 6.00 Build 0)  -->
<!DOCTYPE svg PUBLIC "-//W3C//DTD SVG 1.1//EN" "http://www.w3.org/Graphics/SVG/1.1/DTD/svg11.dtd">
<svg version="1.1" id="Layer_1" xmlns="http://www.w3.org/2000/svg" xmlns:xlink="http://www.w3.org/1999/xlink" x="0px" y="0px"
	 width="226.695px" height="226.695px" viewBox="0 0 226.695 226.695" enable-background="new 0 0 226.695 226.695"
	 xml:space="preserve">
<circle fill-rule="evenodd" clip-rule="evenodd" fill="#676767" cx="113.348" cy="113.348" r="113.347"/>
<g>
	<path fill-rule="evenodd" clip-rule="evenodd" fill="#FFFFFF" d="M155.841,70.564c0.478,5.842-0.622,12.725,0,19.251
		c0.631,6.607,2.758,12.129,4.227,18.786c0.489,2.22,1.339,4.928,0.47,6.104c-0.665,0.898-2.341,1.32-3.521,0.938
		c-1.526-0.491-2-3.882-3.054-4.695c-0.359-1.062,1.534,0.124,1.173-0.939c-0.485-2.642-1.189-5.07-1.642-7.747
		c-0.593,1.52-0.973,3.255-1.175,5.165c-0.952-2.208-3.259-4.299-3.521-7.045c-0.282-2.949,1.731-6.485,2.111-10.095
		c0.657-6.197-0.489-12.255,0-18.548c-10.124,1.676-19.913,4.012-30.051,6.104c-3.184,0.657-6.94,1.909-10.098,1.879
		c-3.696-0.037-8.346-1.729-12.442-2.582c-8.87-1.85-15.123-3.136-24.888-5.166c-3.715-0.772-10.679-1.436-10.8-4.227
		c-0.144-3.312,6.543-3.419,10.564-4.227c8.567-1.72,16.256-3.245,24.654-4.931c3.762-0.754,8.11-2.412,12.209-2.582
		c4.284-0.178,9.21,1.564,13.383,2.347c8.784,1.65,16.395,3.083,26.062,4.933c3.756,0.716,11.15,1.309,11.035,4.46
		C160.456,69.887,157.742,70.339,155.841,70.564z"/>
	<path fill-rule="evenodd" clip-rule="evenodd" fill="#FFFFFF" d="M85.875,79.721c7.396,0.697,16.779,4.324,24.183,4.929
		c0.529,0.045,1.113,0.033,1.644,0c8.325-0.484,15.47-3.947,24.183-4.929c-0.76,2.825,1.949,3.331,1.644,4.929
		c-14.75,4.182-37.951,4.566-52.594,0C84.529,84.119,86.68,82.207,85.875,79.721z"/>
	<path fill-rule="evenodd" clip-rule="evenodd" fill="#FFFFFF" d="M81.882,89.114c16.185,5.401,42.202,5.123,58.462,0
		c2.118,6.03,2.703,11.236,5.401,16.903c1.008,2.119,2.553,4.653,3.991,7.279c1.012,1.843,3.72,5.492,3.757,7.277
		c0.052,2.548-3.694,6.791-5.635,8.923c-6.791,7.457-17.392,12.089-29.584,13.383c-18.694,1.983-35.151-3.664-43.905-12.68
		c-1.936-1.992-6.041-6.295-6.104-9.156c-0.042-1.891,2.56-5.364,3.757-7.514c1.471-2.644,2.95-4.925,3.991-7.044
		C79.146,100.112,79.196,93.935,81.882,89.114z"/>
	<path fill-rule="evenodd" clip-rule="evenodd" fill="#FFFFFF" d="M131.892,144.992c1.601,0.906,1.812,3.2,3.052,4.461
		c14.219,0.072,30.648,0.66,34.983,10.566c0.933,2.126,1.653,7.136,0.236,10.096c-36.683,0.78-76.711,0.781-113.639,0
		c-2.565-7.73,1.559-13.584,6.105-16.201c5.838-3.36,14.455-4.16,21.602-4.461c2.23-0.094,5.387,0.731,7.748,0
		c1.502-0.465,1.455-2.267,2.816-3.051C105.753,149.439,122.301,148.682,131.892,144.992z"/>
</g>
</svg>
