<?xml version="1.0" encoding="utf-8"?>
<!-- Generator: Adobe Illustrator 15.0.0, SVG Export Plug-In . SVG Version: 6.00 Build 0)  -->
<!DOCTYPE svg PUBLIC "-//W3C//DTD SVG 1.1//EN" "http://www.w3.org/Graphics/SVG/1.1/DTD/svg11.dtd">
<svg version="1.1" id="Layer_1" xmlns="http://www.w3.org/2000/svg" xmlns:xlink="http://www.w3.org/1999/xlink" x="0px" y="0px"
	 width="226.695px" height="226.695px" viewBox="0 0 226.695 226.695" enable-background="new 0 0 226.695 226.695"
	 xml:space="preserve">
<circle fill-rule="evenodd" clip-rule="evenodd" fill="#72308D" cx="113.348" cy="113.348" r="113.348"/>
<g>
	<path fill="#FFFFFF" d="M115.63,81.05v3.68c2.43,0.251,4.514,0.75,6.251,1.499c1.738,0.75,3.254,1.887,4.548,3.407
		c1.022,1.158,1.811,2.351,2.368,3.577s0.835,2.351,0.835,3.373c0,1.137-0.415,2.118-1.244,2.946
		c-0.83,0.83-1.834,1.244-3.015,1.244c-2.227,0-3.668-1.204-4.327-3.611c-0.75-2.839-2.555-4.723-5.417-5.655v14.173
		c2.816,0.771,5.059,1.477,6.729,2.111c1.669,0.637,3.163,1.557,4.48,2.76c1.408,1.25,2.492,2.743,3.254,4.48
		c0.761,1.737,1.141,3.641,1.141,5.707c0,2.589-0.608,5.014-1.823,7.273s-3.003,4.105-5.366,5.536
		c-2.363,1.431-5.167,2.282-8.415,2.555v8.483c0,1.34-0.131,2.316-0.392,2.93c-0.261,0.613-0.835,0.92-1.721,0.92
		c-0.817,0-1.392-0.251-1.72-0.749c-0.33-0.5-0.494-1.273-0.494-2.317v-9.198c-2.657-0.295-4.98-0.92-6.967-1.874
		c-1.988-0.953-3.645-2.141-4.974-3.56c-1.329-1.42-2.312-2.896-2.947-4.429c-0.636-1.533-0.954-3.037-0.954-4.515
		c0-1.09,0.426-2.072,1.278-2.947c0.852-0.874,1.913-1.312,3.186-1.312c1.022,0,1.885,0.238,2.589,0.716
		c0.704,0.477,1.192,1.146,1.465,2.01c0.613,1.862,1.146,3.288,1.601,4.275c0.454,0.988,1.141,1.892,2.061,2.709
		s2.141,1.443,3.663,1.874v-15.843c-3.044-0.839-5.587-1.777-7.631-2.811c-2.044-1.033-3.702-2.504-4.974-4.412
		c-1.272-1.907-1.908-4.36-1.908-7.358c0-3.905,1.244-7.108,3.731-9.607c2.487-2.498,6.081-3.952,10.783-4.361v-3.611
		c0-1.907,0.715-2.861,2.146-2.861C114.903,78.257,115.63,79.189,115.63,81.05z M111.304,104.422V91.373
		c-1.908,0.568-3.396,1.317-4.463,2.249c-1.068,0.932-1.602,2.339-1.602,4.225c0,1.794,0.499,3.151,1.499,4.071
		C107.738,102.837,109.259,103.672,111.304,104.422z M115.63,114.54v14.922c2.294-0.454,4.065-1.374,5.315-2.759
		c1.249-1.385,1.874-2.998,1.874-4.838c0-1.977-0.608-3.504-1.823-4.583C119.781,116.204,117.993,115.29,115.63,114.54z"/>
</g>
<path fill="#FFFFFF" d="M113.348,172.372c-32.546,0-59.024-26.479-59.024-59.024s26.479-59.024,59.024-59.024
	c32.545,0,59.023,26.479,59.023,59.024S145.893,172.372,113.348,172.372z M113.348,62.464c-28.057,0-50.884,22.826-50.884,50.884
	s22.828,50.884,50.884,50.884c28.057,0,50.883-22.826,50.883-50.884S141.405,62.464,113.348,62.464z"/>
</svg>
