<svg xmlns="http://www.w3.org/2000/svg"  viewBox="0 0 226.695 226.695"><circle fill-rule="evenodd" clip-rule="evenodd" fill="#72308D" cx="113.3" cy="113.3" r="113.3"/><g>	<path fill-rule="evenodd" clip-rule="evenodd" fill="#FFFFFF" d="M101.757 57.349c3.292-0.728 7.1 1.4 11.9 1.3 c4.352-0.069 7.401-2.406 11.261-1.659c3.746 0.7 5.7 6.4 10.3 9.275c3.002 1.9 8.3 2.3 10.3 5.6 c1.327 2.2 1.3 8.6 2 10.929c1.351 5 5.2 7.5 5.3 11.593c0.076 4.478-4 7.316-5.3 11.6 c-1.021 3.354-0.246 8.165-1.655 10.93c-1.633 3.203-6.666 3.762-10.598 6.293c-3.668 2.361-5.146 7.711-9.937 8.9 c-3.729 0.959-8.452-1.734-13.58-1.324c-3.371 0.27-7.214 1.939-9.935 1.324c-4.336-0.98-6.72-6.961-10.6-9.273 c-3.537-2.107-8.526-2.512-10.266-5.961c-1.162-2.307-0.752-7.458-1.656-10.598c-1.204-4.169-5.23-6.946-5.301-11.593 c-0.063-4.282 4.09-7.406 5.301-11.591c1.035-3.582-0.059-8.815 2.318-11.923c1.875-2.454 6.742-3.257 9.604-4.968 C96.357 63.2 96 58.6 101.8 57.349z M86.19 95.104c0.418 26 31.2 33.7 46.4 18.9 c7.2-7.056 10.771-21.422 4.637-32.456c-3.775-6.791-13.369-15.089-26.827-13.579C97.073 69.4 85.9 80 86.2 95.104z"/>	<path fill-rule="evenodd" clip-rule="evenodd" fill="#FFFFFF" d="M111.508 73.189c13.091-1.267 24 9 23.9 21.8 c-0.078 14.769-14.879 26.71-30.385 20.566c-7.558-2.996-13.76-10.965-13.809-20.566C91.188 83 99.7 74.3 111.5 73.189z"/><path fill-rule="evenodd" clip-rule="evenodd" fill="#FFFFFF" d="M88.177 127.433c4.179 2.2 5.1 6.7 9.3 8.6 c5.446 2.5 10.705-1.664 17.884-0.332c-2.354 5.641-4.896 11.432-7.285 17.223c-2.399 5.816-7.618 16.891-7.618 16.9 s-7.488-11.807-8.61-14.24c-5.298 1.377-16.229 4.303-16.229 4.303S84.292 138.6 88.2 127.433z"/><path fill-rule="evenodd" clip-rule="evenodd" fill="#FFFFFF" d="M150.974 159.56c0 0-10.936-2.662-15.898-3.975 c-3.316 4.299-8.609 14.24-8.609 14.24l-9.938-21.859c0 0 2.707-6.768 4.306-11.26c9.463 1.8 12.589-4.904 16.892-9.273 C142.809 137.5 151 159.6 151 159.56z"/></g></svg>
